# xmcd
#
# Track frame offsets: 
#        150
#        16292
#        35053
#        58303
#        71662
#        85720
#        106300
#        130150
#        151282
#        178719
#        193907
#
# Disc length: 2839 seconds
#
# Revision: 0
# Processed by: cddbd v1.5.2PL0 Copyright (c) Steve Scherf et al.
# Submitted via: ExactAudioCopy v1.3
#
DISCID=970b150b
DTITLE=Sonic Avionics - On the Air
DYEAR=1900
DGENRE=Soul
TTITLE0=Rise Above
TTITLE1=On the Air
TTITLE2=No Time For Harm
TTITLE3=Avocado
TTITLE4=If I Were You
TTITLE5=Salvation Story
TTITLE6=Where Have You Been
TTITLE7=Right Mind
TTITLE8=I Don't Know
TTITLE9=Adrenaline
TTITLE10=Here We Go
EXTD=
EXTT0=
EXTT1=
EXTT2=
EXTT3=
EXTT4=
EXTT5=
EXTT6=
EXTT7=
EXTT8=
EXTT9=
EXTT10=
PLAYORDER=
